<svg width="111" height="14" fill="none" xmlns="http://www.w3.org/2000/svg"><path fill-rule="evenodd" clip-rule="evenodd" d="M14.69 13.039c1.065.616 2.25.924 3.557.924 1.306 0 2.492-.308 3.556-.924a6.71 6.71 0 0 0 2.51-2.53c.61-1.07.915-2.246.915-3.528 0-1.281-.305-2.457-.915-3.528a6.71 6.71 0 0 0-2.51-2.529C20.739.308 19.553 0 18.247 0c-1.307 0-2.492.308-3.556.924a6.711 6.711 0 0 0-2.511 2.53c-.61 1.07-.915 2.246-.915 3.527 0 1.282.305 2.458.915 3.528a6.711 6.711 0 0 0 2.51 2.53ZM5.228.299H0v13.365h5.413c.81 0 1.547-.152 2.212-.457A3.818 3.818 0 0 0 9.212 11.9c.392-.566.588-1.216.588-1.95 0-.76-.205-1.41-.616-1.951-.41-.542-.964-.937-1.661-1.186v-.149a3.255 3.255 0 0 0 1.297-1.13c.33-.49.495-1.073.495-1.745 0-.634-.18-1.22-.542-1.754-.36-.535-.855-.959-1.484-1.27A4.585 4.585 0 0 0 5.227.3Zm1.129 4.993c-.33.305-.768.457-1.316.457H2.52V2.557h2.595c.522 0 .942.153 1.26.458.317.305.476.681.476 1.129 0 .46-.165.843-.495 1.148ZM5.32 11.368c.61 0 1.086-.159 1.428-.476.342-.317.513-.731.513-1.241 0-.51-.174-.927-.522-1.251-.349-.324-.847-.485-1.494-.485H2.52v3.453h2.8Zm12.927.205c.821 0 1.574-.193 2.258-.578A4.176 4.176 0 0 0 22.12 9.37c.392-.697.588-1.494.588-2.39 0-.896-.196-1.692-.588-2.389a4.176 4.176 0 0 0-1.615-1.624 4.52 4.52 0 0 0-2.258-.579 4.47 4.47 0 0 0-2.25.579 4.195 4.195 0 0 0-1.605 1.624c-.392.697-.588 1.493-.588 2.39 0 .895.196 1.692.588 2.389a4.195 4.195 0 0 0 1.605 1.624 4.47 4.47 0 0 0 2.25.578Zm11.797 1.466c1.064.616 2.25.924 3.556.924 1.307 0 2.492-.308 3.556-.924a6.711 6.711 0 0 0 2.51-2.53c.61-1.07.915-2.246.915-3.528 0-1.281-.305-2.457-.914-3.528A6.711 6.711 0 0 0 37.156.924C36.092.308 34.906 0 33.6 0c-1.307 0-2.492.308-3.556.924a6.711 6.711 0 0 0-2.51 2.53c-.61 1.07-.915 2.246-.915 3.527 0 1.282.305 2.458.914 3.528a6.711 6.711 0 0 0 2.511 2.53Zm3.556-1.466c.821 0 1.574-.193 2.259-.578a4.177 4.177 0 0 0 1.614-1.624c.392-.697.588-1.494.588-2.39 0-.896-.196-1.692-.588-2.389a4.177 4.177 0 0 0-1.614-1.624 4.521 4.521 0 0 0-2.259-.579 4.47 4.47 0 0 0-2.25.579 4.195 4.195 0 0 0-1.605 1.624c-.392.697-.588 1.493-.588 2.39 0 .895.196 1.692.588 2.389a4.195 4.195 0 0 0 1.606 1.624 4.47 4.47 0 0 0 2.249.578ZM45.35.3h-2.52v13.365h2.52v-3.92l1.513-1.773 3.994 5.693h3.08v-.15L48.6 5.975 53.433.447v-.15h-3.042L45.5 6.03h-.15V.3ZM56.779 0h3.248l3.546 9.39h.15L67.268 0h3.267v13.365h-2.501V6.776l.15-2.221h-.15l-3.398 8.81h-1.96l-3.416-8.81h-.149l.15 2.221v6.59h-2.483V0Zm23.694 0h-2.893l-5.003 13.365h2.781l1.12-3.192h5.115l1.12 3.192h2.781L80.472 0Zm.299 7.859-1.176-3.36-.486-1.606h-.149L78.475 4.5l-1.195 3.36h3.49ZM92.425 0h-4.872v13.365h2.52V8.344h1.176l3.453 5.021h2.894v-.149l-3.584-5.133.018-.131a4.616 4.616 0 0 0 2.044-1.447 3.523 3.523 0 0 0 .812-2.286c0-.81-.186-1.534-.56-2.175A3.907 3.907 0 0 0 94.75.541C94.07.181 93.296 0 92.425 0Zm-.019 6.03c.573 0 1.04-.175 1.4-.523.361-.349.542-.79.542-1.326 0-.51-.172-.945-.514-1.306-.342-.361-.806-.542-1.39-.542h-2.371V6.03h2.333Zm9.75-6.03h-2.52v13.365h2.52v-3.92l1.512-1.773 3.995 5.693h3.08v-.149l-5.339-7.541 4.835-5.526V0h-3.043l-4.89 5.73h-.15V0Z" fill="#fff"/></svg>